<svg width="21" height="21" viewBox="0 0 21 21" fill="none" xmlns="http://www.w3.org/2000/svg">
<path d="M18.5759 17.1973C19.6535 15.9014 20.4029 14.3653 20.7608 12.7187C21.1187 11.0722 21.0744 9.36381 20.6318 7.738C20.1892 6.11218 19.3613 4.61679 18.218 3.3783C17.0748 2.13982 15.6498 1.19467 14.0638 0.622806C12.4777 0.0509421 10.7771 -0.130817 9.10582 0.0929011C7.43457 0.316619 5.84182 0.939235 4.46229 1.90808C3.08276 2.87693 1.95702 4.16352 1.18031 5.65902C0.403595 7.15451 -0.00125525 8.81493 2.92363e-06 10.4998C0.000590769 12.9495 0.86452 15.3207 2.44019 17.1973L2.42518 17.2098C2.47772 17.2732 2.53777 17.3273 2.59196 17.3892C2.65951 17.4669 2.73187 17.5392 2.80212 17.6148C3.01228 17.8423 3.22799 18.0612 3.45512 18.2673C3.5238 18.3296 3.59503 18.3882 3.66528 18.4486C3.90546 18.6555 4.15195 18.8515 4.40835 19.0345C4.44145 19.0579 4.4708 19.0865 4.50412 19.11V19.1005C6.26205 20.3366 8.35915 21 10.5087 21C12.6583 21 14.7554 20.3366 16.5133 19.1005V19.1098C16.5466 19.0864 16.576 19.0578 16.6091 19.0344C16.8652 18.8513 17.112 18.6553 17.3521 18.4484C17.4224 18.3884 17.4936 18.3295 17.5623 18.2671C17.7893 18.061 18.0051 17.842 18.2153 17.6146C18.2853 17.5392 18.3575 17.4667 18.4255 17.389C18.4794 17.3272 18.5397 17.273 18.5922 17.2096L18.5759 17.1973ZM10.508 4.49982C11.1761 4.49982 11.8291 4.69776 12.3845 5.06861C12.94 5.43946 13.3729 5.96656 13.6285 6.58326C13.8842 7.19997 13.951 7.87857 13.8207 8.53325C13.6904 9.18794 13.3687 9.78931 12.8963 10.2613C12.424 10.7333 11.8222 11.0548 11.167 11.185C10.5118 11.3152 9.83266 11.2484 9.21549 10.9929C8.59832 10.7375 8.07081 10.3049 7.69968 9.74988C7.32854 9.19486 7.13045 8.54234 7.13045 7.87482C7.13045 6.97972 7.4863 6.12127 8.11972 5.48833C8.75314 4.8554 9.61224 4.49982 10.508 4.49982ZM4.50877 17.1973C4.52174 16.2126 4.92221 15.2725 5.62355 14.5805C6.32489 13.8885 7.2707 13.5003 8.25631 13.4998H12.7598C13.7454 13.5003 14.6912 13.8886 15.3925 14.5805C16.0938 15.2725 16.4943 16.2126 16.5073 17.1973C14.8612 18.6796 12.7239 19.4998 10.508 19.4998C8.29218 19.4998 6.15489 18.6796 4.50877 17.1973Z" fill="white"/>
</svg>
