<svg width="15" height="20" viewBox="0 0 15 20" fill="none" xmlns="http://www.w3.org/2000/svg">
<path d="M0 20L0.538736 19.8794C0.706749 19.8438 0.874761 19.8088 1.04277 19.775C1.29905 19.7231 1.5596 19.6706 1.81648 19.6225C2.01311 19.5869 2.20669 19.5544 2.40331 19.515L2.44714 19.5019C2.64985 19.4662 2.85074 19.4269 3.05345 19.4044L4.039 19.2544V0H4.0043C3.49357 0.003125 2.98709 0.013125 2.47697 0.029375C1.9151 0.04625 1.34471 0.07875 0.784059 0.1175C0.542997 0.133125 0.298892 0.156875 0.054178 0.175625H0.0194798V19.9931L0 20ZM4.99351 0.013125V19.1306C5.69417 19.0456 6.39179 18.9775 7.0894 18.9256C8.81092 18.7925 10.5391 18.75 12.2637 18.7987C13.1768 18.8281 14.0899 18.8831 15 18.9613V1.25313C14.1849 1.06063 13.368 0.89125 12.5431 0.745625C10.9452 0.4625 9.33444 0.263125 7.71762 0.13625C6.81364 0.07125 5.90357 0.025625 4.99716 0.013125H4.99351ZM13.732 12.3431L13.6936 12.3406L13.2365 12.2881C12.1018 12.1681 10.9604 12.0862 9.82204 12.0475C8.68065 12.0081 7.53987 12.0219 6.39544 12.0606H6.36074C6.32239 12.0606 6.28769 12.0606 6.24934 12.0475C6.16655 12.0219 6.09107 11.9856 6.03324 11.9244C5.92853 11.81 5.88166 11.66 5.90662 11.51C5.91332 11.4581 5.92853 11.4225 5.95106 11.3706C5.97297 11.335 6.00158 11.2856 6.03324 11.26C6.06794 11.2244 6.10629 11.1981 6.15072 11.1719C6.20125 11.1494 6.24873 11.1363 6.29682 11.1238H6.36926C6.52814 11.1238 6.68642 11.1106 6.83251 11.1106C7.96417 11.085 9.08303 11.085 10.2153 11.1331C11.3847 11.1856 12.5425 11.2731 13.6967 11.41L13.8203 11.4231C13.855 11.4363 13.8903 11.4362 13.928 11.4456C14.0132 11.485 14.0863 11.5338 14.1374 11.5988C14.1721 11.6344 14.194 11.6838 14.2196 11.7356C14.2458 11.785 14.2579 11.8331 14.2579 11.8856C14.2707 12.0225 14.2196 12.1587 14.1246 12.26C14.0863 12.2994 14.0485 12.3219 14.0132 12.3475C13.9761 12.3744 13.928 12.3831 13.8799 12.3969C13.855 12.41 13.8416 12.41 13.8075 12.41H13.7691L13.732 12.3431ZM13.76 10.085C13.7216 10.085 13.7216 10.085 13.6839 10.0781L13.2334 10.0188C12.1018 9.86938 10.961 9.76875 9.82874 9.71937C8.69709 9.6575 7.55205 9.64437 6.40761 9.67L6.36926 9.6575C6.33456 9.64437 6.29682 9.64437 6.26212 9.63188C6.18907 9.60875 6.10324 9.55688 6.05576 9.495C6.0308 9.45563 5.99245 9.40687 5.98271 9.37062C5.9194 9.23063 5.9194 9.07125 5.99245 8.935C6.01741 8.8825 6.04298 8.84688 6.07768 8.8075C6.11237 8.77188 6.15072 8.7325 6.19881 8.72312C6.24934 8.6975 6.29682 8.67062 6.3443 8.67062L6.41735 8.65812L6.89278 8.645C8.02747 8.63188 9.1433 8.65812 10.2628 8.72C11.4334 8.78187 12.5906 8.89563 13.7442 9.045L13.8683 9.05812L13.9414 9.07125C14.0266 9.09688 14.0997 9.13313 14.1599 9.20813C14.2579 9.30875 14.306 9.44563 14.2933 9.5825C14.2933 9.63437 14.2811 9.68312 14.2586 9.71937C14.2336 9.77187 14.208 9.8075 14.1855 9.84625C14.1605 9.88188 14.1252 9.90875 14.0753 9.94812C14.0406 9.97062 13.9895 9.98313 13.942 9.99625L13.869 10.0094H13.8343L13.76 10.085ZM13.76 7.82562C13.7216 7.82562 13.7216 7.82562 13.6839 7.81875L13.2334 7.75375C12.1018 7.59375 10.9695 7.47375 9.82874 7.39563C8.69709 7.32063 7.55205 7.285 6.40761 7.28813H6.36926L6.29682 7.275C6.24873 7.2625 6.21099 7.24563 6.16351 7.22C6.04237 7.14188 5.95714 7.00812 5.93158 6.85563C5.93158 6.80312 5.93158 6.75375 5.94436 6.70563C5.95714 6.65313 5.96932 6.60813 5.99245 6.5625C6.01741 6.51687 6.05576 6.4775 6.09046 6.44187C6.15072 6.38 6.23595 6.3375 6.32178 6.31875C6.36013 6.30875 6.39483 6.30562 6.43318 6.30562H6.89582C8.06217 6.3125 9.23278 6.35812 10.387 6.44875C11.5186 6.53687 12.6375 6.66375 13.76 6.82938L13.8799 6.84625C13.9183 6.85313 13.931 6.85313 13.953 6.86188C14.0011 6.87875 14.051 6.90125 14.0863 6.93C14.1374 6.95688 14.1721 6.9925 14.1977 7.03188C14.2226 7.07 14.2458 7.11625 14.2707 7.165C14.3213 7.295 14.3054 7.44187 14.2458 7.56187C14.2232 7.6075 14.1977 7.65 14.1599 7.68625C14.0997 7.74813 14.0266 7.79063 13.9414 7.80937C13.9189 7.81938 13.9067 7.81938 13.8683 7.8225L13.8337 7.82562H13.76ZM13.76 5.56687C13.7216 5.56687 13.7216 5.56687 13.6839 5.56L13.2334 5.485C12.1018 5.29563 10.9695 5.15937 9.82874 5.07187C8.69709 4.97125 7.55205 4.92188 6.40761 4.89625H6.36926L6.28404 4.88625C6.23595 4.87375 6.19212 4.84687 6.15072 4.82438C6.10629 4.79875 6.07098 4.75938 6.03628 4.72375C6.00767 4.68438 5.98271 4.63562 5.9608 4.60063C5.94436 4.54813 5.93158 4.49875 5.9261 4.4475C5.91331 4.2975 5.96688 4.13812 6.07159 4.0375C6.13185 3.97563 6.21464 3.93313 6.30048 3.91C6.33456 3.90062 6.37291 3.90063 6.40761 3.90063C6.56345 3.90063 6.71503 3.90375 6.87087 3.9075C8.03721 3.93313 9.20113 4.00187 10.3644 4.1125C11.49 4.21 12.6125 4.35938 13.7289 4.54812L13.8403 4.56125C13.872 4.56125 13.8811 4.56125 13.9128 4.57063C13.9639 4.5875 14.0023 4.61 14.0461 4.63562C14.0845 4.65875 14.1192 4.69812 14.1484 4.73375C14.2208 4.84687 14.2555 4.98375 14.2336 5.12125C14.2208 5.17313 14.2086 5.20875 14.1825 5.26062C14.1575 5.29625 14.1222 5.34562 14.0845 5.37125C14.0242 5.43375 13.9511 5.47188 13.8659 5.49875H13.7545L13.76 5.56687ZM1.03973 5.14C0.966682 5.14 0.893633 5.12313 0.821192 5.0875C0.662311 5.01 0.563695 4.84312 0.55152 4.66813C0.55152 4.61875 0.563695 4.57312 0.576478 4.53125C0.588653 4.47188 0.614829 4.42063 0.649527 4.37125C0.68666 4.31625 0.734751 4.27063 0.782841 4.23812C0.846151 4.19563 0.9192 4.17313 0.979465 4.16L1.36906 4.12437C1.90232 4.07625 2.42827 4.03688 2.95179 4.00437H2.99866C3.08449 4.0075 3.15693 4.02375 3.21781 4.0625C3.37608 4.1475 3.47409 4.31687 3.47409 4.49563C3.47409 4.54063 3.4613 4.58625 3.44913 4.62875C3.43635 4.68375 3.41443 4.73938 3.37608 4.78438C3.34138 4.84938 3.29025 4.885 3.24277 4.92438C3.1825 4.96 3.11919 4.98625 3.04614 4.99937C2.96335 5.0125 2.87813 5.0125 2.7923 5.02187C2.6809 5.035 2.56098 5.035 2.4374 5.04875L1.48959 5.12312L1.25827 5.15C1.21018 5.1625 1.16026 5.1625 1.09939 5.1625L1.03973 5.14ZM13.7472 3.3075L13.6717 3.2975L13.2243 3.21563C12.089 3.02062 10.9446 2.86125 9.80317 2.74375C8.67091 2.62937 7.52648 2.55813 6.38205 2.51875H6.3437L6.27065 2.50313C6.22377 2.49 6.18847 2.47375 6.13733 2.445C6.10263 2.41812 6.06428 2.38563 6.03019 2.34313C5.93097 2.23 5.89384 2.07 5.93097 1.92375C5.94375 1.87125 5.96567 1.82313 5.99184 1.77375C6.0168 1.72125 6.05211 1.68562 6.08985 1.64688C6.15012 1.58438 6.23534 1.545 6.32117 1.5225C6.35587 1.50938 6.39422 1.50937 6.42892 1.50937L6.90435 1.5225C8.036 1.57188 9.15486 1.64687 10.2743 1.77312C11.4437 1.89625 12.5979 2.0725 13.7557 2.27125L13.8757 2.28375C13.914 2.28375 13.9268 2.28375 13.9487 2.29688C13.9998 2.30938 14.0467 2.33625 14.0851 2.35875C14.1928 2.44687 14.2659 2.57375 14.2793 2.71062C14.2914 2.75875 14.2793 2.80813 14.2665 2.86063C14.2665 2.90875 14.2446 2.96125 14.2184 2.9975C14.1934 3.03688 14.1678 3.0725 14.1332 3.11063C14.0729 3.17313 13.9871 3.20875 13.9018 3.22125L13.8318 3.23438H13.7935L13.7472 3.3075ZM1.02695 2.66562C0.958159 2.66562 0.888154 2.65 0.824236 2.62063C0.767623 2.59062 0.714054 2.55125 0.672659 2.50625C0.634309 2.46063 0.602654 2.41188 0.580739 2.35313C0.564303 2.31375 0.554564 2.26875 0.549085 2.22312C0.532649 2.04375 0.612394 1.86813 0.757883 1.7675C0.821801 1.725 0.891197 1.69563 0.96729 1.68563C1.09695 1.67625 1.22479 1.67625 1.35141 1.66313C1.8804 1.62375 2.40757 1.60125 2.93353 1.57562H2.97492C3.04797 1.58812 3.12102 1.60125 3.18128 1.6375C3.32677 1.725 3.42539 1.90062 3.42539 2.07312C3.42539 2.12562 3.4126 2.17375 3.39921 2.21312C3.37425 2.275 3.35234 2.32375 3.31703 2.37625C3.27868 2.42438 3.22755 2.47375 3.16789 2.49938C3.10763 2.53875 3.03458 2.56125 2.96153 2.56125C2.8763 2.57437 2.79047 2.57437 2.69185 2.57437L2.32722 2.6C2.00093 2.6225 1.68378 2.63562 1.36602 2.66187L1.12252 2.675C1.06165 2.68813 1.01477 2.68813 0.963638 2.68813L1.02695 2.66562Z" fill="white"/>
</svg>
