<svg width="20" height="21" viewBox="0 0 20 21" fill="none" xmlns="http://www.w3.org/2000/svg">
<path d="M10 16.3205C14.4883 16.3205 18.125 12.668 18.125 8.16024C18.125 3.65249 14.4883 0 10 0C5.51172 0 1.875 3.65249 1.875 8.16024C1.875 12.668 5.51172 16.3205 10 16.3205ZM9.13281 3.82119V3.1621C9.13281 2.80116 9.42188 2.51084 9.78125 2.51084H10.2148C10.5742 2.51084 10.8633 2.80116 10.8633 3.1621V3.82904C11.4688 3.86042 12.0547 4.06835 12.543 4.43321C12.7617 4.59406 12.7852 4.91576 12.5898 5.10408L11.9531 5.71217C11.8047 5.85733 11.582 5.86125 11.4062 5.7514C11.1953 5.61802 10.9609 5.55132 10.7109 5.55132H9.19141C8.83984 5.55132 8.55469 5.87302 8.55469 6.26927C8.55469 6.59097 8.75 6.87736 9.02734 6.95975L11.4609 7.69339C12.4648 7.99547 13.168 8.9645 13.168 10.0512C13.168 11.3851 12.1367 12.464 10.8594 12.4993V13.1584C10.8594 13.5193 10.5703 13.8096 10.2109 13.8096H9.77734C9.41797 13.8096 9.12891 13.5193 9.12891 13.1584V12.4915C8.52344 12.4601 7.9375 12.2521 7.44922 11.8873C7.23047 11.7264 7.20703 11.4047 7.40234 11.2164L8.03906 10.6083C8.1875 10.4632 8.41016 10.4592 8.58594 10.5691C8.79688 10.7025 9.03125 10.7692 9.28125 10.7692H10.8008C11.1523 10.7692 11.4375 10.4475 11.4375 10.0512C11.4375 9.72952 11.2422 9.44313 10.9648 9.36074L8.53125 8.62711C7.52734 8.32502 6.82422 7.35599 6.82422 6.26927C6.82812 4.93538 7.85547 3.8565 9.13281 3.82119ZM18.75 13.8096H17.4805C16.7148 14.8297 15.7383 15.681 14.6289 16.3205H17.1211C17.3281 16.3205 17.4961 16.4617 17.4961 16.6343V17.2621C17.4961 17.4347 17.3281 17.5759 17.1211 17.5759H2.875C2.66797 17.5759 2.5 17.4347 2.5 17.2621V16.6343C2.5 16.4617 2.66797 16.3205 2.875 16.3205H5.36719C4.25781 15.681 3.28516 14.8297 2.51562 13.8096H1.25C0.558594 13.8096 0 14.3707 0 15.0651V18.8313C0 19.5257 0.558594 20.0868 1.25 20.0868H18.75C19.4414 20.0868 20 19.5257 20 18.8313V15.0651C20 14.3707 19.4414 13.8096 18.75 13.8096Z" fill="white"/>
</svg>
