<svg width="24" height="24" viewBox="0 0 24 24" fill="none" xmlns="http://www.w3.org/2000/svg">
<mask id="mask0_8_55" style="mask-type:alpha" maskUnits="userSpaceOnUse" x="0" y="0" width="24" height="24">
<rect width="24" height="24" fill="#D9D9D9"/>
</mask>
<g mask="url(#mask0_8_55)">
<path d="M3 19C2.45 19 1.97917 18.8042 1.5875 18.4125C1.19583 18.0208 1 17.55 1 17V7C1 6.45 1.19583 5.97917 1.5875 5.5875C1.97917 5.19583 2.45 5 3 5H13C13.55 5 14.0208 5.19583 14.4125 5.5875C14.8042 5.97917 15 6.45 15 7V17C15 17.55 14.8042 18.0208 14.4125 18.4125C14.0208 18.8042 13.55 19 13 19H3ZM3 17H13V7H3V17ZM4 15H12L9.4 11.5L7.5 14L6.1 12.15L4 15ZM17 19V5H19V19H17ZM21 19V5H23V19H21Z" fill="#1C1B1F"/>
</g>
</svg>
