<svg width="24" height="24" viewBox="0 0 24 24" fill="none" xmlns="http://www.w3.org/2000/svg">
<mask id="mask0_8_67" style="mask-type:alpha" maskUnits="userSpaceOnUse" x="0" y="0" width="24" height="24">
<rect width="24" height="24" fill="#D9D9D9"/>
</mask>
<g mask="url(#mask0_8_67)">
<path d="M5 17.5C5.43333 17.5 5.79167 17.3583 6.075 17.075C6.35833 16.7917 6.5 16.4333 6.5 16C6.5 15.5667 6.35833 15.2083 6.075 14.925C5.79167 14.6417 5.43333 14.5 5 14.5C4.56667 14.5 4.20833 14.6417 3.925 14.925C3.64167 15.2083 3.5 15.5667 3.5 16C3.5 16.4333 3.64167 16.7917 3.925 17.075C4.20833 17.3583 4.56667 17.5 5 17.5ZM9 13C9.28333 13 9.52083 12.9042 9.7125 12.7125C9.90417 12.5208 10 12.2833 10 12C10 11.7167 9.90417 11.4792 9.7125 11.2875C9.52083 11.0958 9.28333 11 9 11C8.71667 11 8.47917 11.0958 8.2875 11.2875C8.09583 11.4792 8 11.7167 8 12C8 12.2833 8.09583 12.5208 8.2875 12.7125C8.47917 12.9042 8.71667 13 9 13ZM9 9C9.28333 9 9.52083 8.90417 9.7125 8.7125C9.90417 8.52083 10 8.28333 10 8C10 7.71667 9.90417 7.47917 9.7125 7.2875C9.52083 7.09583 9.28333 7 9 7C8.71667 7 8.47917 7.09583 8.2875 7.2875C8.09583 7.47917 8 7.71667 8 8C8 8.28333 8.09583 8.52083 8.2875 8.7125C8.47917 8.90417 8.71667 9 9 9ZM3 21V19H21V21H3ZM5 9.5C5.43333 9.5 5.79167 9.35833 6.075 9.075C6.35833 8.79167 6.5 8.43333 6.5 8C6.5 7.56667 6.35833 7.20833 6.075 6.925C5.79167 6.64167 5.43333 6.5 5 6.5C4.56667 6.5 4.20833 6.64167 3.925 6.925C3.64167 7.20833 3.5 7.56667 3.5 8C3.5 8.43333 3.64167 8.79167 3.925 9.075C4.20833 9.35833 4.56667 9.5 5 9.5ZM5 13.5C5.43333 13.5 5.79167 13.3583 6.075 13.075C6.35833 12.7917 6.5 12.4333 6.5 12C6.5 11.5667 6.35833 11.2083 6.075 10.925C5.79167 10.6417 5.43333 10.5 5 10.5C4.56667 10.5 4.20833 10.6417 3.925 10.925C3.64167 11.2083 3.5 11.5667 3.5 12C3.5 12.4333 3.64167 12.7917 3.925 13.075C4.20833 13.3583 4.56667 13.5 5 13.5ZM9 17C9.28333 17 9.52083 16.9042 9.7125 16.7125C9.90417 16.5208 10 16.2833 10 16C10 15.7167 9.90417 15.4792 9.7125 15.2875C9.52083 15.0958 9.28333 15 9 15C8.71667 15 8.47917 15.0958 8.2875 15.2875C8.09583 15.4792 8 15.7167 8 16C8 16.2833 8.09583 16.5208 8.2875 16.7125C8.47917 16.9042 8.71667 17 9 17ZM17 16.5C17.15 16.5 17.2708 16.4542 17.3625 16.3625C17.4542 16.2708 17.5 16.15 17.5 16C17.5 15.85 17.4542 15.7292 17.3625 15.6375C17.2708 15.5458 17.15 15.5 17 15.5C16.85 15.5 16.7292 15.5458 16.6375 15.6375C16.5458 15.7292 16.5 15.85 16.5 16C16.5 16.15 16.5458 16.2708 16.6375 16.3625C16.7292 16.4542 16.85 16.5 17 16.5ZM3 5V3H21V5H3ZM17 8.5C17.15 8.5 17.2708 8.45417 17.3625 8.3625C17.4542 8.27083 17.5 8.15 17.5 8C17.5 7.85 17.4542 7.72917 17.3625 7.6375C17.2708 7.54583 17.15 7.5 17 7.5C16.85 7.5 16.7292 7.54583 16.6375 7.6375C16.5458 7.72917 16.5 7.85 16.5 8C16.5 8.15 16.5458 8.27083 16.6375 8.3625C16.7292 8.45417 16.85 8.5 17 8.5ZM17 12.5C17.15 12.5 17.2708 12.4542 17.3625 12.3625C17.4542 12.2708 17.5 12.15 17.5 12C17.5 11.85 17.4542 11.7292 17.3625 11.6375C17.2708 11.5458 17.15 11.5 17 11.5C16.85 11.5 16.7292 11.5458 16.6375 11.6375C16.5458 11.7292 16.5 11.85 16.5 12C16.5 12.15 16.5458 12.2708 16.6375 12.3625C16.7292 12.4542 16.85 12.5 17 12.5ZM13 9C13.2833 9 13.5208 8.90417 13.7125 8.7125C13.9042 8.52083 14 8.28333 14 8C14 7.71667 13.9042 7.47917 13.7125 7.2875C13.5208 7.09583 13.2833 7 13 7C12.7167 7 12.4792 7.09583 12.2875 7.2875C12.0958 7.47917 12 7.71667 12 8C12 8.28333 12.0958 8.52083 12.2875 8.7125C12.4792 8.90417 12.7167 9 13 9ZM13 13C13.2833 13 13.5208 12.9042 13.7125 12.7125C13.9042 12.5208 14 12.2833 14 12C14 11.7167 13.9042 11.4792 13.7125 11.2875C13.5208 11.0958 13.2833 11 13 11C12.7167 11 12.4792 11.0958 12.2875 11.2875C12.0958 11.4792 12 11.7167 12 12C12 12.2833 12.0958 12.5208 12.2875 12.7125C12.4792 12.9042 12.7167 13 13 13ZM13 17C13.2833 17 13.5208 16.9042 13.7125 16.7125C13.9042 16.5208 14 16.2833 14 16C14 15.7167 13.9042 15.4792 13.7125 15.2875C13.5208 15.0958 13.2833 15 13 15C12.7167 15 12.4792 15.0958 12.2875 15.2875C12.0958 15.4792 12 15.7167 12 16C12 16.2833 12.0958 16.5208 12.2875 16.7125C12.4792 16.9042 12.7167 17 13 17Z" fill="#1C1B1F"/>
</g>
</svg>
