<svg width="24" height="24" viewBox="0 0 24 24" fill="none" xmlns="http://www.w3.org/2000/svg">
<mask id="mask0_5_56" style="mask-type:alpha" maskUnits="userSpaceOnUse" x="0" y="0" width="24" height="24">
<rect width="24" height="24" fill="#D9D9D9"/>
</mask>
<g mask="url(#mask0_5_56)">
<path d="M9 22V8.775C7.48333 8.375 6.27083 7.5375 5.3625 6.2625C4.45417 4.9875 4 3.56667 4 2H6C6 3.38333 6.44583 4.5625 7.3375 5.5375C8.22917 6.5125 9.36667 7 10.75 7H13.25C13.75 7 14.2167 7.09167 14.65 7.275C15.0833 7.45833 15.475 7.725 15.825 8.075L20.35 12.6L18.95 14L15 10.05V22H13V16H11V22H9ZM12 6C11.45 6 10.9792 5.80417 10.5875 5.4125C10.1958 5.02083 10 4.55 10 4C10 3.45 10.1958 2.97917 10.5875 2.5875C10.9792 2.19583 11.45 2 12 2C12.55 2 13.0208 2.19583 13.4125 2.5875C13.8042 2.97917 14 3.45 14 4C14 4.55 13.8042 5.02083 13.4125 5.4125C13.0208 5.80417 12.55 6 12 6Z" fill="#1C1B1F"/>
</g>
</svg>
