<svg width="24" height="24" viewBox="0 0 24 24" fill="none" xmlns="http://www.w3.org/2000/svg">
<mask id="mask0_5_44" style="mask-type:alpha" maskUnits="userSpaceOnUse" x="0" y="0" width="24" height="24">
<rect width="24" height="24" fill="#D9D9D9"/>
</mask>
<g mask="url(#mask0_5_44)">
<path d="M12 22C10.6167 22 9.31667 21.7375 8.1 21.2125C6.88333 20.6875 5.825 19.975 4.925 19.075C4.025 18.175 3.3125 17.1167 2.7875 15.9C2.2625 14.6833 2 13.3833 2 12C2 10.6167 2.2625 9.31667 2.7875 8.1C3.3125 6.88333 4.025 5.825 4.925 4.925C5.825 4.025 6.88333 3.3125 8.1 2.7875C9.31667 2.2625 10.6167 2 12 2C13.3833 2 14.6833 2.2625 15.9 2.7875C17.1167 3.3125 18.175 4.025 19.075 4.925C19.975 5.825 20.6875 6.88333 21.2125 8.1C21.7375 9.31667 22 10.6167 22 12C22 13.3833 21.7375 14.6833 21.2125 15.9C20.6875 17.1167 19.975 18.175 19.075 19.075C18.175 19.975 17.1167 20.6875 15.9 21.2125C14.6833 21.7375 13.3833 22 12 22ZM12 17.5C12.75 16.75 13.4167 15.975 14 15.175C14.5 14.4917 14.9583 13.7417 15.375 12.925C15.7917 12.1083 16 11.3 16 10.5C16 9.4 15.6083 8.45833 14.825 7.675C14.0417 6.89167 13.1 6.5 12 6.5C10.9 6.5 9.95833 6.89167 9.175 7.675C8.39167 8.45833 8 9.4 8 10.5C8 11.3 8.20833 12.1083 8.625 12.925C9.04167 13.7417 9.5 14.4917 10 15.175C10.5833 15.975 11.25 16.75 12 17.5ZM12 12C11.5833 12 11.2292 11.8542 10.9375 11.5625C10.6458 11.2708 10.5 10.9167 10.5 10.5C10.5 10.0833 10.6458 9.72917 10.9375 9.4375C11.2292 9.14583 11.5833 9 12 9C12.4167 9 12.7708 9.14583 13.0625 9.4375C13.3542 9.72917 13.5 10.0833 13.5 10.5C13.5 10.9167 13.3542 11.2708 13.0625 11.5625C12.7708 11.8542 12.4167 12 12 12Z" fill="#1C1B1F"/>
</g>
</svg>
