<svg width="14" height="12" viewBox="0 0 14 12" fill="none" xmlns="http://www.w3.org/2000/svg">
<path d="M0.645996 8.95947C0.529785 8.95947 0.440918 8.90137 0.379395 8.78516C0.324707 8.66895 0.297363 8.50488 0.297363 8.29297C0.297363 8.25879 0.297363 8.22119 0.297363 8.18018C0.297363 8.13232 0.304199 8.04346 0.317871 7.91357C0.338379 7.42139 0.581055 7.13428 1.0459 7.05225L1.28174 7.03174C1.43896 7.01123 1.56201 6.96338 1.65088 6.88818C1.73975 6.80615 1.80469 6.69336 1.8457 6.5498C1.96191 6.16016 2.07812 5.76709 2.19434 5.37061C2.31055 4.97412 2.43359 4.58105 2.56348 4.19141C2.63184 3.97266 2.7002 3.74023 2.76855 3.49414C2.84375 3.24121 2.92236 2.9917 3.00439 2.74561C3.09326 2.49951 3.19238 2.25684 3.30176 2.01758C3.41797 1.77832 3.54785 1.55957 3.69141 1.36133C3.75293 1.2793 3.83838 1.19385 3.94775 1.10498C4.05713 1.01611 4.18018 0.9375 4.31689 0.869141C4.46045 0.793945 4.61084 0.73584 4.76807 0.694824C4.93213 0.646973 5.09277 0.623047 5.25 0.623047C5.45508 0.623047 5.65674 0.687988 5.85498 0.817871C6.12158 1.00244 6.38477 1.22461 6.64453 1.48438C6.9043 1.74414 7.19482 2.07568 7.51611 2.479C7.8374 2.88232 8.20996 3.37109 8.63379 3.94531C9.05762 4.5127 9.56689 5.19971 10.1616 6.00635C10.2505 6.10889 10.3428 6.1875 10.4385 6.24219C10.541 6.29004 10.6606 6.31396 10.7974 6.31396H11.3818C11.6211 6.31396 11.8057 6.37207 11.9355 6.48828C12.0723 6.59766 12.1406 6.75146 12.1406 6.94971C12.1406 6.99072 12.1372 7.03857 12.1304 7.09326C12.1304 7.14795 12.1201 7.20264 12.0996 7.25732L11.9048 7.83154C11.8911 7.88623 11.8809 7.93408 11.874 7.9751C11.8672 8.01611 11.8638 8.05713 11.8638 8.09814C11.8638 8.2417 11.9116 8.38867 12.0073 8.53906L13.1045 10.0361C13.2275 10.2207 13.2891 10.395 13.2891 10.5591C13.2891 10.8052 13.1489 11.0205 12.8687 11.2051L12.479 11.4819C12.3833 11.5435 12.291 11.5913 12.2021 11.6255C12.1201 11.6597 12.0347 11.6768 11.9458 11.6768C11.8228 11.6768 11.7065 11.6392 11.5972 11.564C11.4946 11.4956 11.3955 11.3999 11.2998 11.2769C10.9717 10.812 10.6401 10.354 10.3052 9.90283C9.97705 9.45166 9.64209 9.00391 9.30029 8.55957C9.14307 8.34082 8.93457 8.23145 8.6748 8.23145C7.84082 8.26562 7.01367 8.31348 6.19336 8.375C5.37988 8.42969 4.56299 8.49805 3.74268 8.58008C3.44873 8.60742 3.26416 8.76465 3.18896 9.05176L2.72754 10.7437C2.60449 11.1948 2.33105 11.4204 1.90723 11.4204H1.74316L1.42529 11.3794C1.19287 11.3589 1.01514 11.2871 0.89209 11.1641C0.775879 11.041 0.717773 10.8804 0.717773 10.6821C0.717773 10.6411 0.721191 10.5967 0.728027 10.5488C0.734863 10.501 0.745117 10.4497 0.758789 10.395C0.792969 10.2583 0.827148 10.1182 0.861328 9.97461C0.902344 9.83105 0.943359 9.69092 0.984375 9.5542C0.998047 9.49951 1.0083 9.45166 1.01514 9.41064C1.02197 9.36279 1.02539 9.31836 1.02539 9.27734C1.02539 9.06543 0.943359 8.95947 0.779297 8.95947H0.645996ZM5.52686 3.54541C5.4585 3.48389 5.39697 3.43262 5.34229 3.3916C5.2876 3.35059 5.22949 3.33008 5.16797 3.33008C4.99707 3.33008 4.87744 3.44971 4.80908 3.68896C4.67236 4.09229 4.53906 4.49219 4.40918 4.88867C4.28613 5.27832 4.15967 5.67822 4.02979 6.08838C4.01611 6.12256 4.00928 6.15332 4.00928 6.18066C4.00928 6.20801 4.00928 6.23877 4.00928 6.27295C4.00928 6.52588 4.14258 6.65234 4.40918 6.65234H4.51172C4.92188 6.59766 5.33203 6.55664 5.74219 6.5293C6.15234 6.49512 6.5625 6.46777 6.97266 6.44727C7.10938 6.43359 7.21533 6.39941 7.29053 6.34473C7.37256 6.2832 7.41357 6.20459 7.41357 6.10889C7.41357 6.02002 7.37256 5.91406 7.29053 5.79102C7.00342 5.4082 6.71289 5.03223 6.41895 4.66309C6.13184 4.28711 5.83447 3.91455 5.52686 3.54541Z" fill="white"/>
</svg>
