<svg width="23" height="23" viewBox="0 0 23 23" fill="none" xmlns="http://www.w3.org/2000/svg">
<path d="M11.3824 6.7124C8.83242 6.7124 6.73242 8.8124 6.73242 11.3624C6.73242 13.9499 8.83242 16.0124 11.3824 16.0124C13.9324 16.0124 16.0324 13.9499 16.0324 11.3624C16.0324 8.8124 13.9324 6.7124 11.3824 6.7124ZM11.3824 14.3624C9.73242 14.3624 8.41992 13.0124 8.41992 11.3999C8.41992 9.7499 9.73242 8.4374 11.3824 8.4374C13.0324 8.4374 14.3449 9.7499 14.3449 11.3624C14.3449 13.0124 12.9949 14.3624 11.3824 14.3624Z" fill="white"/>
<path d="M22.107 13.65L20.007 12.4875C20.082 12.075 20.1195 11.6625 20.1195 11.25C20.1195 10.8 20.082 10.3875 20.0445 9.975L22.182 8.775C22.6695 8.5125 22.857 7.9125 22.632 7.3875L20.457 3.7125C20.1945 3.2625 19.5945 3.075 19.107 3.2625L16.857 4.5C16.7445 4.425 16.632 4.3125 16.557 4.2375C16.1445 3.9 15.7695 3.5625 15.1695 3.2625C15.132 3.2625 15.0945 3.225 15.0945 3.15V1.8C15.0945 0.825 14.307 0 13.2945 0H9.43196C8.45697 0 7.63197 0.825 7.63197 1.8V3.2625C7.63197 3.3 7.59447 3.3375 7.55696 3.375C6.99446 3.6375 6.58197 4.0125 6.13197 4.35C6.05697 4.425 5.94447 4.5 5.86946 4.575L3.88197 3.45C3.13197 3.0375 2.49447 3.3 2.23197 3.75L0.169465 7.3125C0.0569653 7.6125 0.0194653 7.9125 0.0944653 8.2125C0.169465 8.5125 0.356965 8.7375 0.619465 8.8875L2.71947 10.0125C2.64447 10.3875 2.64447 10.8 2.64447 11.2875C2.64447 11.7 2.68197 12.1125 2.71947 12.525L0.544465 13.725C0.0569653 13.9875 -0.130535 14.5875 0.0944653 15.1125L2.26947 18.7875C2.53197 19.2375 3.09447 19.425 3.61947 19.2375L5.86946 18C5.98197 18.075 6.05697 18.15 6.16947 18.2625C6.58197 18.6375 6.99447 18.975 7.59447 19.2375C7.63197 19.2375 7.66947 19.275 7.66947 19.35V20.9625C7.66947 21.9375 8.45697 22.7625 9.46947 22.7625H13.2945C14.2695 22.7625 15.0945 21.9375 15.0945 20.9625V19.2375C15.0945 19.2 15.132 19.1625 15.1695 19.125C15.732 18.8625 16.107 18.525 16.557 18.15C16.6695 18.075 16.7445 18 16.857 17.8875L18.8445 19.0125C19.5945 19.425 20.1945 19.1625 20.4945 18.7125L22.5945 15.15C22.7445 14.8875 22.782 14.5875 22.707 14.325C22.632 14.0625 22.3695 13.8 22.107 13.65ZM19.257 17.3625L17.457 16.35C16.932 16.05 16.332 16.125 15.882 16.5C15.6945 16.65 15.5445 16.7625 15.3945 16.9125C15.0195 17.25 14.757 17.475 14.382 17.625C13.782 17.925 13.3695 18.5625 13.3695 19.2375V20.8875C13.3695 20.9625 13.332 21 13.257 21H9.43196C9.35697 21 9.31947 20.9625 9.31947 20.8875V19.275C9.31947 18.6 8.90697 17.9625 8.30696 17.6625C7.93196 17.475 7.63197 17.25 7.25697 16.9125C7.10697 16.8 6.95696 16.65 6.76946 16.5375C6.50697 16.35 6.20696 16.2375 5.86946 16.2375C5.64446 16.2375 5.38197 16.3125 5.15697 16.425L3.35697 17.4375L1.85697 14.8875L3.61947 13.9125C4.14446 13.6125 4.44447 13.05 4.36946 12.4125C4.33196 12.0375 4.29447 11.6625 4.29447 11.2875C4.29447 10.875 4.33196 10.5 4.36946 10.2C4.48197 9.5625 4.18196 8.925 3.61947 8.625L1.96947 7.6875L3.43197 5.175L5.23197 6.1875C5.75697 6.4875 6.35697 6.4125 6.80696 6.0375C6.95696 5.925 7.10697 5.775 7.25697 5.6625C7.63197 5.325 7.93196 5.1 8.30696 4.9125C8.94446 4.6125 9.31947 3.975 9.31947 3.3V1.8375C9.31947 1.7625 9.35697 1.725 9.43196 1.725H13.257C13.332 1.725 13.3695 1.7625 13.3695 1.8375V3.2625C13.3695 3.9375 13.782 4.575 14.382 4.875C14.757 5.0625 15.0195 5.2875 15.3945 5.5875C15.5445 5.7375 15.6945 5.85 15.882 6C16.332 6.375 16.9695 6.4125 17.457 6.1125L19.257 5.1L20.757 7.65L19.032 8.625C18.507 8.925 18.207 9.5625 18.3195 10.2C18.357 10.5375 18.3945 10.9125 18.3945 11.2875C18.3945 11.6625 18.357 12.0375 18.282 12.4125C18.1695 13.05 18.4695 13.65 19.032 13.95L20.7195 14.8875L19.257 17.3625Z" fill="white"/>
</svg>
