<svg width="14" height="21" viewBox="0 0 14 21" fill="none" xmlns="http://www.w3.org/2000/svg">
<path d="M12.3326 2.62875H9.91011V2.05896C9.91011 1.05344 9.15506 0.249023 8.21124 0.249023H5.78876C4.84494 0.249023 4.08989 1.05344 4.08989 2.05896V2.62875H1.66742C0.755056 2.62875 0 3.43316 0 4.40516V5.41068C0 6.14806 0.408989 6.75137 1.00674 7.01951L1.51011 18.6165C1.57303 19.7225 2.39101 20.5605 3.42921 20.5605H10.5079C11.5461 20.5605 12.3955 19.689 12.427 18.6165L12.9933 6.98599C13.591 6.71785 14 6.08103 14 5.37716V4.37165C14 3.43316 13.2449 2.62875 12.3326 2.62875ZM5.53708 2.05896C5.53708 1.89137 5.66292 1.7573 5.82022 1.7573H8.2427C8.4 1.7573 8.52584 1.89137 8.52584 2.05896V2.62875H5.56854V2.05896H5.53708ZM1.44719 4.40516C1.44719 4.27109 1.54157 4.13703 1.69888 4.13703H12.3326C12.4584 4.13703 12.5843 4.23758 12.5843 4.40516V5.41068C12.5843 5.54475 12.4899 5.67882 12.3326 5.67882H1.69888C1.57303 5.67882 1.44719 5.57827 1.44719 5.41068V4.40516ZM10.5393 19.0522H3.49213C3.20899 19.0522 2.98876 18.8176 2.98876 18.5494L2.48539 7.1871H11.5775L11.0742 18.5494C11.0427 18.8176 10.8225 19.0522 10.5393 19.0522Z" fill="white"/>
<path d="M7.01656 10.5391C6.63904 10.5391 6.29297 10.8742 6.29297 11.31V15.5667C6.29297 15.9689 6.60758 16.3375 7.01656 16.3375C7.39409 16.3375 7.74016 16.0024 7.74016 15.5667V11.31C7.74016 10.8742 7.39409 10.5391 7.01656 10.5391Z" fill="white"/>
<path d="M9.53214 11.2091C9.12315 11.1756 8.80855 11.4772 8.77708 11.9129L8.58832 14.8625C8.55686 15.2647 8.84001 15.6334 9.24899 15.6669C9.28046 15.6669 9.28046 15.6669 9.31192 15.6669C9.68944 15.6669 10.0041 15.3652 10.0041 14.963L10.1928 12.0135C10.1928 11.5778 9.90967 11.2426 9.53214 11.2091Z" fill="white"/>
<path d="M4.46753 11.2091C4.09001 11.2426 3.7754 11.6113 3.80686 12.0135L4.02708 14.963C4.05855 15.3652 4.37315 15.6669 4.71922 15.6669C4.75068 15.6669 4.75068 15.6669 4.78214 15.6669C5.15967 15.6334 5.47428 15.2647 5.44282 14.8625L5.22259 11.9129C5.22259 11.4772 4.87652 11.1756 4.46753 11.2091Z" fill="white"/>
</svg>
