<svg width="24" height="24" viewBox="0 0 24 24" fill="none" xmlns="http://www.w3.org/2000/svg">
<mask id="mask0_19_7" style="mask-type:alpha" maskUnits="userSpaceOnUse" x="0" y="0" width="24" height="24">
<rect width="24" height="24" fill="#D9D9D9"/>
</mask>
<g mask="url(#mask0_19_7)">
<path d="M12 21L0 9C1.58333 7.38333 3.4125 6.14583 5.4875 5.2875C7.5625 4.42917 9.73333 4 12 4C14.2833 4 16.4583 4.425 18.525 5.275C20.5917 6.125 22.4167 7.36667 24 9L12 21ZM4.35 10.5C5.46667 9.7 6.675 9.08333 7.975 8.65C9.275 8.21667 10.6167 8 12 8C13.3833 8 14.725 8.21667 16.025 8.65C17.325 9.08333 18.5333 9.7 19.65 10.5L21.1 9.05C19.7833 8.05 18.35 7.29167 16.8 6.775C15.25 6.25833 13.65 6 12 6C10.35 6 8.75 6.25833 7.2 6.775C5.65 7.29167 4.21667 8.05 2.9 9.05L4.35 10.5Z" fill="white"/>
</g>
</svg>
