<svg width="24" height="24" viewBox="0 0 24 24" fill="none" xmlns="http://www.w3.org/2000/svg">
<mask id="mask0_8_133" style="mask-type:alpha" maskUnits="userSpaceOnUse" x="0" y="0" width="24" height="24">
<rect width="24" height="24" fill="#D9D9D9"/>
</mask>
<g mask="url(#mask0_8_133)">
<path d="M9.125 21L9.525 18.45H11.85L13.9 5.55H11.4L10.675 10.05H8.025L9.15 3H22.125L21 10.05H18.35L19.05 5.55H16.55L14.5 18.45H16.825L16.425 21H9.125ZM3.75 7L4.075 5H7.825L7.5 7H3.75ZM3.125 11L3.45 9H7.2L6.875 11H3.125ZM1.875 19L2.175 17H8.425L8.125 19H1.875ZM2.5 15L2.825 13H9.075L8.75 15H2.5Z" fill="#1C1B1F"/>
</g>
</svg>
