<svg width="24" height="24" viewBox="0 0 24 24" fill="none" xmlns="http://www.w3.org/2000/svg">
<mask id="mask0_8_91" style="mask-type:alpha" maskUnits="userSpaceOnUse" x="0" y="0" width="24" height="24">
<rect width="24" height="24" fill="#D9D9D9"/>
</mask>
<g mask="url(#mask0_8_91)">
<path d="M5 15C4.16667 15 3.45833 14.7083 2.875 14.125C2.29167 13.5417 2 12.8333 2 12C2 11.1667 2.29167 10.4583 2.875 9.875C3.45833 9.29167 4.16667 9 5 9H19C19.8333 9 20.5417 9.29167 21.125 9.875C21.7083 10.4583 22 11.1667 22 12C22 12.8333 21.7083 13.5417 21.125 14.125C20.5417 14.7083 19.8333 15 19 15H5ZM14 13H19C19.2833 13 19.5208 12.9042 19.7125 12.7125C19.9042 12.5208 20 12.2833 20 12C20 11.7167 19.9042 11.4792 19.7125 11.2875C19.5208 11.0958 19.2833 11 19 11H14V13Z" fill="#1C1B1F"/>
</g>
</svg>
