<svg width="24" height="24" viewBox="0 0 24 24" fill="none" xmlns="http://www.w3.org/2000/svg">
<mask id="mask0_5_86" style="mask-type:alpha" maskUnits="userSpaceOnUse" x="0" y="0" width="24" height="24">
<rect width="24" height="24" fill="#D9D9D9"/>
</mask>
<g mask="url(#mask0_5_86)">
<path d="M4 14C3.45 14 2.97917 13.8042 2.5875 13.4125C2.19583 13.0208 2 12.55 2 12C2 11.45 2.19583 10.9792 2.5875 10.5875C2.97917 10.1958 3.45 10 4 10C4.55 10 5.02083 10.1958 5.4125 10.5875C5.80417 10.9792 6 11.45 6 12C6 12.55 5.80417 13.0208 5.4125 13.4125C5.02083 13.8042 4.55 14 4 14ZM5.65 19.7L4.25 18.3L8.6 13.95L10 15.35L5.65 19.7ZM8.65 10L4.3 5.65L5.7 4.25L10.05 8.6L8.65 10ZM12 22C11.45 22 10.9792 21.8042 10.5875 21.4125C10.1958 21.0208 10 20.55 10 20C10 19.45 10.1958 18.9792 10.5875 18.5875C10.9792 18.1958 11.45 18 12 18C12.55 18 13.0208 18.1958 13.4125 18.5875C13.8042 18.9792 14 19.45 14 20C14 20.55 13.8042 21.0208 13.4125 21.4125C13.0208 21.8042 12.55 22 12 22ZM12 6C11.45 6 10.9792 5.80417 10.5875 5.4125C10.1958 5.02083 10 4.55 10 4C10 3.45 10.1958 2.97917 10.5875 2.5875C10.9792 2.19583 11.45 2 12 2C12.55 2 13.0208 2.19583 13.4125 2.5875C13.8042 2.97917 14 3.45 14 4C14 4.55 13.8042 5.02083 13.4125 5.4125C13.0208 5.80417 12.55 6 12 6ZM15.35 10.05L13.95 8.6L18.35 4.25L19.75 5.65L15.35 10.05ZM18.35 19.7L14 15.35L15.4 13.95L19.75 18.3L18.35 19.7ZM20 14C19.45 14 18.9792 13.8042 18.5875 13.4125C18.1958 13.0208 18 12.55 18 12C18 11.45 18.1958 10.9792 18.5875 10.5875C18.9792 10.1958 19.45 10 20 10C20.55 10 21.0208 10.1958 21.4125 10.5875C21.8042 10.9792 22 11.45 22 12C22 12.55 21.8042 13.0208 21.4125 13.4125C21.0208 13.8042 20.55 14 20 14Z" fill="#1C1B1F"/>
</g>
</svg>
