<svg width="24" height="24" viewBox="0 0 24 24" fill="none" xmlns="http://www.w3.org/2000/svg">
<mask id="mask0_8_127" style="mask-type:alpha" maskUnits="userSpaceOnUse" x="0" y="0" width="24" height="24">
<rect width="24" height="24" fill="#D9D9D9"/>
</mask>
<g mask="url(#mask0_8_127)">
<path d="M7 17C5.61667 17 4.4375 16.5125 3.4625 15.5375C2.4875 14.5625 2 13.3833 2 12C2 10.6167 2.4875 9.4375 3.4625 8.4625C4.4375 7.4875 5.61667 7 7 7C7.83333 7 8.5875 7.18333 9.2625 7.55C9.9375 7.91667 10.5167 8.4 11 9H19C19.8333 9 20.5417 9.29167 21.125 9.875C21.7083 10.4583 22 11.1667 22 12C22 12.8333 21.7083 13.5417 21.125 14.125C20.5417 14.7083 19.8333 15 19 15H11C10.5167 15.6 9.9375 16.0833 9.2625 16.45C8.5875 16.8167 7.83333 17 7 17ZM11.9 13H19C19.2833 13 19.5208 12.9042 19.7125 12.7125C19.9042 12.5208 20 12.2833 20 12C20 11.7167 19.9042 11.4792 19.7125 11.2875C19.5208 11.0958 19.2833 11 19 11H11.9C11.9333 11.15 11.9583 11.3167 11.975 11.5C11.9917 11.6833 12 11.85 12 12C12 12.15 11.9917 12.3167 11.975 12.5C11.9583 12.6833 11.9333 12.85 11.9 13ZM7 15C7.83333 15 8.54167 14.7083 9.125 14.125C9.70833 13.5417 10 12.8333 10 12C10 11.1667 9.70833 10.4583 9.125 9.875C8.54167 9.29167 7.83333 9 7 9C6.16667 9 5.45833 9.29167 4.875 9.875C4.29167 10.4583 4 11.1667 4 12C4 12.8333 4.29167 13.5417 4.875 14.125C5.45833 14.7083 6.16667 15 7 15Z" fill="#1C1B1F"/>
</g>
</svg>
